<svg data-v-423bf9ae="" xmlns="http://www.w3.org/2000/svg" viewBox="0 0 352 90" class="iconLeft"><!----><!----><!----><g data-v-423bf9ae="" id="3571bcbc-e840-4f2b-92cd-d6e61efc337c" fill="#1F1E1A" transform="matrix(3.7641155319627186,0,0,3.7641155319627186,113.70953701243897,6.342533740717023)"><path d="M9.97 8.72L9.97 8.72L9.97 8.72Q9.97 9.56 9.70 10.31L9.70 10.31L9.70 10.31Q9.43 11.05 8.96 11.66L8.96 11.66L8.96 11.66Q8.49 12.26 7.85 12.71L7.85 12.71L7.85 12.71Q7.22 13.17 6.49 13.47L6.49 13.47L6.49 13.47Q5.02 14.08 3.39 14.08L3.39 14.08L1.19 14.08L1.19 14.08Q1.71 13.54 1.71 12.13L1.71 12.13L1.71 5.17L0.21 5.17L0.21 5.17Q0.31 5.15 0.67 4.83L0.67 4.83L0.67 4.83Q1.35 4.25 1.53 4.25L1.53 4.25L4.57 4.24L4.57 4.24Q6.84 4.24 8.31 5.26L8.31 5.26L8.31 5.26Q9.97 6.42 9.97 8.72ZM8.41 11.26L8.41 11.26L8.41 11.26Q8.65 10.60 8.65 9.71L8.65 9.71L8.65 9.71Q8.65 8.82 8.47 8.14L8.47 8.14L8.47 8.14Q8.29 7.46 7.94 6.96L7.94 6.96L7.94 6.96Q7.60 6.46 7.11 6.12L7.11 6.12L7.11 6.12Q6.62 5.78 6.00 5.56L6.00 5.56L6.00 5.56Q4.82 5.17 3.04 5.17L3.04 5.17L3.04 11.76L3.04 11.76Q3.04 12.46 2.83 12.82L2.83 12.82L2.83 12.82Q2.74 12.97 2.60 13.17L2.60 13.17L4.87 13.17L4.87 13.17Q7.72 13.17 8.41 11.26ZM16.15 12.82L16.15 12.82L16.15 12.82Q15.22 13.86 13.83 14.12L13.83 14.12L13.83 14.12Q13.51 14.18 13.04 14.18L13.04 14.18L13.04 14.18Q12.56 14.18 12.15 13.91L12.15 13.91L12.15 13.91Q11.73 13.65 11.46 13.23L11.46 13.23L11.46 13.23Q10.96 12.43 10.96 11.27L10.96 11.27L10.96 11.27Q10.96 10.50 11.55 9.57L11.55 9.57L11.55 9.57Q12.12 8.65 12.95 8.04L12.95 8.04L12.95 8.04Q13.84 7.38 14.63 7.38L14.63 7.38L14.63 7.38Q15.04 7.38 15.32 7.68L15.32 7.68L15.32 7.68Q15.58 7.98 15.58 8.35L15.58 8.35L15.58 8.35Q15.58 8.73 15.42 9.05L15.42 9.05L15.42 9.05Q15.25 9.37 14.99 9.67L14.99 9.67L14.99 9.67Q14.72 9.97 14.39 10.24L14.39 10.24L14.39 10.24Q14.05 10.52 13.69 10.76L13.69 10.76L13.69 10.76Q13.19 11.10 12.43 11.53L12.43 11.53L12.43 11.53Q12.65 12.36 13.21 12.81L13.21 12.81L13.21 12.81Q13.76 13.25 14.64 13.25L14.64 13.25L14.64 13.25Q15.37 13.25 16.15 12.82ZM14.09 10.08L14.09 10.08L14.09 10.08Q14.27 9.78 14.27 9.50L14.27 9.50L14.27 9.50Q14.27 9.22 14.21 9.03L14.21 9.03L14.21 9.03Q14.15 8.83 14.03 8.68L14.03 8.68L14.03 8.68Q13.77 8.34 13.34 8.34L13.34 8.34L13.34 8.34Q12.30 8.34 12.30 10.46L12.30 10.46L12.30 10.46Q12.30 10.83 12.37 11.20L12.37 11.20L12.37 11.20Q13.57 10.87 14.09 10.08ZM23.38 8.11L23.38 8.11L23.38 8.11Q23.38 9.62 21.22 12.82L21.22 12.82L21.22 12.82Q21.10 13.00 20.98 13.19L20.98 13.19L20.98 13.19Q20.86 13.38 20.76 13.49L20.76 13.49L20.76 13.49Q20.67 13.60 20.56 13.68L20.56 13.68L20.56 13.68Q20.45 13.75 20.31 13.85L20.31 13.85L20.31 13.85Q20.17 13.94 20.01 14.03L20.01 14.03L20.01 14.03Q19.86 14.12 19.73 14.21L19.73 14.21L19.73 14.21Q19.41 14.42 19.41 14.44L19.41 14.44L19.41 14.44Q19.13 13.30 18.83 12.16L18.83 12.16L18.83 12.16Q18.53 11.03 18.27 10.39L18.27 10.39L18.27 10.39Q18.01 9.74 17.90 9.48L17.90 9.48L17.90 9.48Q17.79 9.22 17.64 8.98L17.64 8.98L17.64 8.98Q17.29 8.41 16.86 8.41L16.86 8.41L16.86 8.41Q16.62 8.41 16.30 8.59L16.30 8.59L16.30 8.59Q17.27 7.46 18.24 7.46L18.24 7.46L18.24 7.46Q18.96 7.46 19.78 10.01L19.78 10.01L19.78 10.01Q20.12 11.07 20.30 11.78L20.30 11.78L20.30 11.78Q20.48 12.49 20.55 12.76L20.55 12.76L20.55 12.76Q21.52 11.23 21.90 9.94L21.90 9.94L21.90 9.94Q22.05 9.44 22.05 9.02L22.05 9.02L22.05 9.02Q22.05 8.39 21.57 8.39L21.57 8.39L21.57 8.39Q21.40 8.39 21.17 8.48L21.17 8.48L21.17 8.48Q21.40 8.39 21.58 8.22L21.58 8.22L21.58 8.22Q21.76 8.05 21.94 7.89L21.94 7.89L21.94 7.89Q22.39 7.47 22.88 7.47L22.88 7.47L22.88 7.47Q23.38 7.47 23.38 8.11ZM25.83 9.88L30.76 9.88L30.76 9.88Q30.67 9.88 30.31 10.21L30.31 10.21L30.31 10.21Q29.62 10.81 29.44 10.81L29.44 10.81L24.50 10.81L24.50 10.81Q24.58 10.80 24.95 10.48L24.95 10.48L24.95 10.48Q25.31 10.17 25.51 10.02L25.51 10.02L25.51 10.02Q25.70 9.88 25.83 9.88L25.83 9.88ZM40.07 5.17L39.06 5.17L39.06 5.17Q38.21 6.09 36.00 8.14L36.00 8.14L36.00 8.14Q40.03 12.11 40.87 12.70L40.87 12.70L40.87 12.70Q41.52 13.17 42.13 13.17L42.13 13.17L42.13 13.17Q42.44 13.17 43.16 12.84L43.16 12.84L43.16 12.84Q42.78 13.21 42.48 13.41L42.48 13.41L42.48 13.41Q42.18 13.60 41.97 13.72L41.97 13.72L41.97 13.72Q41.77 13.83 41.55 13.92L41.55 13.92L41.55 13.92Q40.71 14.26 40.12 14.01L40.12 14.01L40.12 14.01Q39.68 13.82 39.31 13.50L39.31 13.50L39.31 13.50Q38.95 13.17 38.72 12.97L38.72 12.97L38.72 12.97Q38.49 12.76 38.17 12.47L38.17 12.47L38.17 12.47Q37.84 12.18 37.50 11.87L37.50 11.87L37.50 11.87Q36.85 11.26 36.11 10.56L36.11 10.56L36.11 10.56Q35.38 9.86 34.58 9.11L34.58 9.11L34.58 9.11Q37.88 5.95 38.56 5.17L38.56 5.17L37.37 5.17L37.37 5.17Q37.84 4.75 38.22 4.50L38.22 4.50L38.22 4.50Q38.61 4.25 38.69 4.25L38.69 4.25L41.41 4.25L41.41 4.25Q41.28 4.27 40.96 4.56L40.96 4.56L40.96 4.56Q40.64 4.85 40.52 4.95L40.52 4.95L40.52 4.95Q40.22 5.17 40.07 5.17L40.07 5.17ZM34.82 14.08L32.50 14.08L32.50 14.08Q33.12 13.45 33.12 11.70L33.12 11.70L33.12 5.17L31.84 5.17L32.11 4.96L32.11 4.96Q32.98 4.25 33.17 4.25L33.17 4.25L36.29 4.25L36.29 4.25Q36.21 4.25 35.84 4.57L35.84 4.57L35.84 4.57Q35.47 4.89 35.28 5.03L35.28 5.03L35.28 5.03Q35.08 5.17 34.96 5.17L34.96 5.17L34.45 5.17L34.45 11.43L34.45 11.43Q34.45 12.08 34.39 12.31L34.39 12.31L34.39 12.31Q34.30 12.67 33.96 13.15L33.96 13.15L36.16 13.15L36.16 13.15Q36.06 13.17 35.73 13.45L35.73 13.45L35.73 13.45Q35.40 13.74 35.27 13.84L35.27 13.84L35.27 13.84Q34.96 14.08 34.82 14.08L34.82 14.08ZM44.95 10.53L44.95 12.59L44.95 12.59Q44.95 13.28 45.34 13.28L45.34 13.28L45.34 13.28Q45.48 13.28 45.76 13.16L45.76 13.16L45.76 13.16Q45.49 13.75 44.96 14.05L44.96 14.05L44.96 14.05Q44.69 14.21 44.38 14.19L44.38 14.19L44.38 14.19Q44.07 14.18 43.94 14.03L43.94 14.03L43.94 14.03Q43.80 13.88 43.73 13.67L43.73 13.67L43.73 13.67Q43.62 13.33 43.62 12.80L43.62 12.80L43.62 5.00L43.62 5.00Q43.62 4.27 43.37 4.03L43.37 4.03L43.37 4.03Q43.25 3.92 43.07 3.92L43.07 3.92L43.07 3.92Q42.78 3.92 42.43 4.02L42.43 4.02L42.43 4.02Q43.26 3.36 44.95 2.30L44.95 2.30L44.95 8.57L44.95 8.57Q45.80 7.82 46.70 7.55L46.70 7.55L46.70 7.55Q47.02 7.44 47.33 7.44L47.33 7.44L47.33 7.44Q47.64 7.44 47.92 7.54L47.92 7.54L47.92 7.54Q48.19 7.64 48.41 7.82L48.41 7.82L48.41 7.82Q48.90 8.22 48.90 8.83L48.90 8.83L48.90 12.30L48.90 12.30Q48.90 13.21 49.33 13.30L49.33 13.30L49.33 13.30Q49.46 13.33 49.59 13.33L49.59 13.33L49.59 13.33Q49.81 13.33 50.19 13.16L50.19 13.16L50.19 13.16Q49.62 13.88 48.87 14.11L48.87 14.11L48.87 14.11Q48.61 14.19 48.31 14.19L48.31 14.19L48.31 14.19Q48.02 14.19 47.85 14.05L47.85 14.05L47.85 14.05Q47.69 13.90 47.63 13.69L47.63 13.69L47.63 13.69Q47.56 13.47 47.56 13.21L47.56 13.21L47.56 10.14L47.56 10.14Q47.56 9.10 47.24 8.74L47.24 8.74L47.24 8.74Q46.95 8.39 46.16 8.39L46.16 8.39L46.16 8.39Q45.10 8.39 44.97 9.84L44.97 9.84L44.97 9.84Q44.95 10.21 44.95 10.53L44.95 10.53ZM55.32 9.28L55.32 12.06L55.30 12.54L55.30 12.54Q55.30 13.07 55.60 13.21L55.60 13.21L55.60 13.21Q55.72 13.27 55.87 13.27L55.87 13.27L55.87 13.27Q56.11 13.27 56.36 13.16L56.36 13.16L56.36 13.16Q56.10 13.27 55.91 13.45L55.91 13.45L55.91 13.45Q55.72 13.62 55.52 13.79L55.52 13.79L55.52 13.79Q55.03 14.21 54.53 14.21L54.53 14.21L54.53 14.21Q54.03 14.21 54.00 13.63L54.00 13.63L54.00 13.63Q53.98 13.48 53.98 13.33L53.98 13.33L53.98 13.33Q52.75 14.18 51.73 14.18L51.73 14.18L51.73 14.18Q50.86 14.18 50.52 13.66L50.52 13.66L50.52 13.66Q50.40 13.47 50.40 13.13L50.40 13.13L50.40 13.13Q50.40 12.80 50.61 12.46L50.61 12.46L50.61 12.46Q50.81 12.12 51.13 11.84L51.13 11.84L51.13 11.84Q51.69 11.32 52.48 10.99L52.48 10.99L52.48 10.99Q53.07 10.73 53.99 10.70L53.99 10.70L53.99 10.40L53.99 10.40Q53.99 9.31 53.79 8.93L53.79 8.93L53.79 8.93Q53.59 8.54 53.28 8.36L53.28 8.36L53.28 8.36Q52.96 8.18 52.54 8.18L52.54 8.18L52.54 8.18Q51.82 8.18 51.28 8.46L51.28 8.46L51.28 8.46Q52.03 7.84 52.38 7.64L52.38 7.64L52.38 7.64Q53.09 7.24 53.68 7.24L53.68 7.24L53.68 7.24Q54.26 7.24 54.56 7.41L54.56 7.41L54.56 7.41Q54.85 7.58 55.02 7.86L55.02 7.86L55.02 7.86Q55.32 8.35 55.32 9.28L55.32 9.28ZM52.10 13.04L52.10 13.04L52.10 13.04Q52.27 13.16 52.49 13.21L52.49 13.21L52.49 13.21Q52.71 13.27 53.14 13.27L53.14 13.27L53.14 13.27Q53.57 13.27 53.99 13.06L53.99 13.06L53.99 11.63L52.88 11.63L52.88 11.63Q52.29 11.63 51.84 11.71L51.84 11.71L51.84 11.71Q51.75 12.00 51.75 12.27L51.75 12.27L51.75 12.27Q51.75 12.54 51.85 12.73L51.85 12.73L51.85 12.73Q51.94 12.92 52.10 13.04ZM61.94 12.63L61.94 9.21L61.94 9.21Q61.94 8.34 61.45 8.34L61.45 8.34L61.45 8.34Q61.28 8.34 61.13 8.41L61.13 8.41L61.13 8.41Q61.91 7.75 62.23 7.58L62.23 7.58L62.23 7.58Q62.56 7.42 62.79 7.42L62.79 7.42L62.79 7.42Q63.01 7.42 63.14 7.58L63.14 7.58L63.14 7.58Q63.27 7.74 63.27 7.98L63.27 7.98L63.27 12.02L63.27 12.02Q63.27 14.31 62.15 16.15L62.15 16.15L62.15 16.15Q61.36 17.42 60.07 17.96L60.07 17.96L60.07 17.96Q59.42 18.24 58.63 18.24L58.63 18.24L58.63 18.24Q57.95 18.24 57.56 17.94L57.56 17.94L57.56 17.94Q57.42 17.82 57.42 17.69L57.42 17.69L57.42 17.69Q57.42 17.55 57.50 17.44L57.50 17.44L57.50 17.44Q57.59 17.33 57.73 17.22L57.73 17.22L57.73 17.22Q57.87 17.10 58.04 16.99L58.04 16.99L58.04 16.99Q58.21 16.88 58.37 16.79L58.37 16.79L58.37 16.79Q58.78 16.54 58.90 16.44L58.90 16.44L58.90 16.44Q58.73 16.58 58.73 16.74L58.73 16.74L58.73 16.74Q58.73 16.90 58.88 17.01L58.88 17.01L58.88 17.01Q59.04 17.12 59.25 17.19L59.25 17.19L59.25 17.19Q59.64 17.32 60.07 17.32L60.07 17.32L60.07 17.32Q60.50 17.32 60.83 17.10L60.83 17.10L60.83 17.10Q61.16 16.88 61.37 16.51L61.37 16.51L61.37 16.51Q61.58 16.15 61.70 15.69L61.70 15.69L61.70 15.69Q61.81 15.22 61.86 14.75L61.86 14.75L61.86 14.75Q61.91 14.25 61.94 13.04L61.94 13.04L61.94 13.04Q60.42 14.21 59.29 14.21L59.29 14.21L59.29 14.21Q58.52 14.21 58.12 13.70L58.12 13.70L58.12 13.70Q57.76 13.24 57.76 12.44L57.76 12.44L57.76 9.69L57.76 9.69Q57.76 8.31 56.97 8.31L56.97 8.31L56.97 8.31Q56.72 8.31 56.49 8.41L56.49 8.41L56.49 8.41Q57.31 7.68 57.84 7.46L57.84 7.46L57.84 7.46Q58.09 7.37 58.35 7.37L58.35 7.37L58.35 7.37Q58.62 7.37 58.77 7.47L58.77 7.47L58.77 7.47Q58.92 7.57 58.99 7.72L58.99 7.72L58.99 7.72Q59.11 7.98 59.11 8.49L59.11 8.49L59.10 11.32L59.10 11.32Q59.10 12.29 59.45 12.75L59.45 12.75L59.45 12.75Q59.86 13.28 60.79 13.28L60.79 13.28L60.79 13.28Q61.12 13.28 61.44 13.09L61.44 13.09L61.44 13.09Q61.76 12.91 61.94 12.63L61.94 12.63Z"></path></g><defs data-v-423bf9ae=""><linearGradient data-v-423bf9ae="" gradientTransform="rotate(25)" id="f2bf48ae-56b0-4394-89a7-aad6c1f29b59" x1="0%" y1="0%" x2="100%" y2="0%"><stop data-v-423bf9ae="" offset="0%" style="stop-color: rgb(9, 120, 166); stop-opacity: 1;"></stop><stop data-v-423bf9ae="" offset="100%" style="stop-color: rgb(251, 148, 71); stop-opacity: 1;"></stop></linearGradient></defs><g data-v-423bf9ae="" id="d10e1678-b677-40dc-8742-993b82bf3c36" transform="matrix(1.2,0,0,1.2,-12.375,-14.5)" stroke="none" fill="url(#f2bf48ae-56b0-4394-89a7-aad6c1f29b59)"><path d="M80 12.5H20a9.386 9.386 0 0 0-9.375 9.375v41.25A9.386 9.386 0 0 0 20 72.5h20.625v3.574c0 .063.027.115.032.176H25a6.882 6.882 0 0 0-6.876 6.875A4.38 4.38 0 0 0 22.5 87.5h55a4.38 4.38 0 0 0 4.374-4.375A6.882 6.882 0 0 0 75 76.25H59.343c0-.061.032-.113.032-.176V72.5H80a9.386 9.386 0 0 0 9.375-9.375v-41.25A9.386 9.386 0 0 0 80 12.5zm-60 3.75h60a5.631 5.631 0 0 1 5.625 5.625v37.5h-71.25v-37.5A5.631 5.631 0 0 1 20 16.25zm58.125 66.875a.625.625 0 0 1-.624.625h-55a.625.625 0 0 1-.624-.625A3.13 3.13 0 0 1 25 80h50a3.13 3.13 0 0 1 3.125 3.125zM55.657 76.25H44.343c0-.061.032-.113.032-.176V72.5h11.25v3.574c0 .063.027.115.032.176zM80 68.75H20a5.631 5.631 0 0 1-5.625-5.625h71.25A5.631 5.631 0 0 1 80 68.75z"></path><path d="M33.674 49.451a1.875 1.875 0 0 0 2.652-2.651l-8.05-8.049 8.05-8.049a1.875 1.875 0 0 0-2.652-2.652L24.3 37.424a1.876 1.876 0 0 0 0 2.652zM63.674 49.451a1.876 1.876 0 0 0 2.652 0l9.374-9.375a1.876 1.876 0 0 0 0-2.652l-9.375-9.375a1.875 1.875 0 0 0-2.651 2.651l8.05 8.049-8.05 8.051a1.876 1.876 0 0 0 0 2.651zM43.536 51.677a1.876 1.876 0 0 0 2.516-.838l11.25-22.5a1.875 1.875 0 0 0-3.354-1.678L42.7 49.161a1.874 1.874 0 0 0 .836 2.516z"></path></g><!----></svg>